<svg width="75" height="41" viewBox="0 0 75 41" fill="none" xmlns="http://www.w3.org/2000/svg">
<path d="M31.9805 5.59961C31.6914 5.59961 31.2461 5.57617 30.6445 5.5293C30.0586 5.48633 29.6133 5.4668 29.3086 5.4707H28.8926C28.9043 6.00977 28.957 6.88477 29.0508 8.0957C29.1367 9.22461 29.1797 10.1016 29.1797 10.7266C29.1797 10.8633 29.1934 11.0703 29.2207 11.3477C29.248 11.625 29.2617 11.834 29.2617 11.9746C29.2617 12.2402 29.2188 12.4688 29.1328 12.6602C29.0234 12.918 28.8535 13.0469 28.623 13.0469C28.4668 13.0469 28.3262 12.9922 28.2012 12.8828C28.0762 12.7734 28.0137 12.6328 28.0137 12.4609C28.0137 12.4023 28.0234 12.3145 28.043 12.1973C28.0625 12.0801 28.0723 11.9922 28.0723 11.9336C28.0723 11.7422 28.0586 11.4551 28.0312 11.0723C28.0078 10.6895 27.9961 10.4004 27.9961 10.2051C27.9961 9.64648 27.9512 8.86133 27.8613 7.84961C27.7676 6.75586 27.7148 5.9707 27.7031 5.49414L27.1699 5.5C26.3145 5.5 25.6426 5.4375 25.1543 5.3125C24.8379 5.23047 24.6797 5.03711 24.6797 4.73242C24.6797 4.57227 24.7305 4.43164 24.832 4.31055C24.9492 4.17383 25.0996 4.11133 25.2832 4.12305C25.4199 4.13086 25.7324 4.16602 26.2207 4.22852C26.6113 4.27539 26.9277 4.29883 27.1699 4.29883C27.4043 4.29883 27.7598 4.29492 28.2363 4.28711C28.7129 4.27539 29.0684 4.26953 29.3027 4.26953C29.6035 4.26953 30.0488 4.29102 30.6387 4.33398C31.2324 4.37695 31.6797 4.39844 31.9805 4.39844C32.1484 4.39844 32.2891 4.45703 32.4023 4.57422C32.5156 4.6875 32.5723 4.83008 32.5723 5.00195C32.5723 5.16992 32.5156 5.3125 32.4023 5.42969C32.2891 5.54297 32.1484 5.59961 31.9805 5.59961ZM36.8555 13.3574C35.7539 13.3574 34.8203 13.0273 34.0547 12.3672C33.2422 11.6641 32.8359 10.7578 32.8359 9.64844C32.8359 8.29688 33.2363 7.06836 34.0371 5.96289C34.9316 4.73633 36.0469 4.12305 37.3828 4.12305C38.668 4.12305 39.623 4.41211 40.248 4.99023C40.9004 5.5918 41.2266 6.54102 41.2266 7.83789C41.2266 9.18945 40.8594 10.4082 40.125 11.4941C39.2812 12.7363 38.1914 13.3574 36.8555 13.3574ZM37.3828 5.32422C36.4258 5.32422 35.6152 5.80078 34.9512 6.75391C34.3379 7.62891 34.0312 8.59375 34.0312 9.64844C34.0312 10.4023 34.3105 11.0156 34.8691 11.4883C35.4043 11.9336 36.0664 12.1562 36.8555 12.1562C37.8047 12.1562 38.5879 11.6777 39.2051 10.7207C39.7559 9.86523 40.0312 8.9043 40.0312 7.83789C40.0312 6.9043 39.8223 6.24805 39.4043 5.86914C39.0059 5.50586 38.332 5.32422 37.3828 5.32422ZM51.6328 12.959C51.0273 13.373 50.1582 13.5801 49.0254 13.5801C48.7402 13.5801 48.4141 13.5352 48.0469 13.4453C47.6055 13.3398 47.2734 13.2031 47.0508 13.0352H46.9922C46.8242 13.0352 46.6836 12.9766 46.5703 12.8594C46.457 12.7422 46.4004 12.5996 46.4004 12.4316C46.4004 12.0215 46.418 11.4082 46.4531 10.5918C46.4922 9.77148 46.5117 9.15625 46.5117 8.74609C46.5117 8.28906 46.502 7.60742 46.4824 6.70117C46.4668 5.79102 46.459 5.10742 46.459 4.65039C46.459 4.49023 46.541 4.32227 46.7051 4.14648C46.8691 3.9707 47.0332 3.88281 47.1973 3.88281C47.291 3.88281 47.6035 4.01367 48.1348 4.27539C48.7363 4.56836 49.084 4.73047 49.1777 4.76172C50.2871 5.14062 51.2324 5.72266 52.0137 6.50781C52.9316 7.43359 53.3906 8.45117 53.3906 9.56055C53.3906 10.2285 53.2324 10.8691 52.916 11.4824C52.6035 12.0957 52.1758 12.5879 51.6328 12.959ZM50.4023 6.75977C50.0039 6.49805 49.084 6.04883 47.6426 5.41211L47.6719 7.09961L47.6895 8.78125L47.5957 11.9805C47.623 11.9922 47.6641 12.0176 47.7188 12.0566C48.0625 12.2871 48.4961 12.4023 49.0195 12.4023C49.9102 12.4023 50.5586 12.2656 50.9648 11.9922C51.3438 11.7344 51.6445 11.3887 51.8672 10.9551C52.0938 10.5176 52.207 10.0625 52.207 9.58984C52.207 8.48828 51.6055 7.54492 50.4023 6.75977ZM58.6875 13.3574C57.5859 13.3574 56.6523 13.0273 55.8867 12.3672C55.0742 11.6641 54.668 10.7578 54.668 9.64844C54.668 8.29688 55.0684 7.06836 55.8691 5.96289C56.7637 4.73633 57.8789 4.12305 59.2148 4.12305C60.5 4.12305 61.4551 4.41211 62.0801 4.99023C62.7324 5.5918 63.0586 6.54102 63.0586 7.83789C63.0586 9.18945 62.6914 10.4082 61.957 11.4941C61.1133 12.7363 60.0234 13.3574 58.6875 13.3574ZM59.2148 5.32422C58.2578 5.32422 57.4473 5.80078 56.7832 6.75391C56.1699 7.62891 55.8633 8.59375 55.8633 9.64844C55.8633 10.4023 56.1426 11.0156 56.7012 11.4883C57.2363 11.9336 57.8984 12.1562 58.6875 12.1562C59.6367 12.1562 60.4199 11.6777 61.0371 10.7207C61.5879 9.86523 61.8633 8.9043 61.8633 7.83789C61.8633 6.9043 61.6543 6.24805 61.2363 5.86914C60.8379 5.50586 60.1641 5.32422 59.2148 5.32422ZM65.748 11.1953C65.5879 11.1953 65.4473 11.1348 65.3262 11.0137C65.2051 10.8887 65.1445 10.748 65.1445 10.5918C65.1445 10.3223 65.3945 9.99023 65.8945 9.5957L67.2949 8.54102C67.7988 8.10742 68.0508 7.71094 68.0508 7.35156C68.0508 6.89844 67.8379 6.48047 67.4121 6.09766C67.002 5.72656 66.5664 5.54102 66.1055 5.54102C65.8594 5.54102 65.5469 5.66797 65.168 5.92188C64.7891 6.17188 64.5547 6.29688 64.4648 6.29688C64.3047 6.29688 64.166 6.23242 64.0488 6.10352C63.9355 5.97461 63.8789 5.83008 63.8789 5.66992C63.8789 5.36133 64.1777 5.05469 64.7754 4.75C65.3105 4.47656 65.7539 4.33984 66.1055 4.33984C66.8906 4.33984 67.6035 4.64648 68.2441 5.25977C68.8848 5.87305 69.2051 6.57031 69.2051 7.35156C69.2051 7.92188 69.0215 8.42773 68.6543 8.86914C68.4355 9.13477 68.0293 9.47852 67.4355 9.90039C66.8379 10.334 66.4219 10.6855 66.1875 10.9551C66.0508 11.1152 65.9043 11.1953 65.748 11.1953ZM65.4258 13.4219C65.2539 13.4219 65.0977 13.3633 64.957 13.2461C64.8203 13.1328 64.752 12.9941 64.752 12.8301C64.752 12.5879 64.8164 12.3691 64.9453 12.1738C65.0898 11.9551 65.2754 11.8457 65.502 11.8457C65.877 11.8457 66.0645 12.0762 66.0645 12.5371C66.0645 12.752 66.0137 12.9453 65.9121 13.1172C65.7871 13.3203 65.625 13.4219 65.4258 13.4219Z" fill="black"/>
<path d="M29.4758 23.4998C23.6178 25.1143 22.086 16.8471 21.9761 11.3457C21.6394 20.5742 11.0845 21.4362 10.3707 19.3171" stroke="#C64848"/>
<path d="M3.16571 31.6036C2.5724 31.5043 2.09872 31.2 1.74468 30.6906C1.34947 30.1234 1.20835 29.4263 1.32133 28.5993C1.43371 27.7976 1.75262 27.1285 2.27806 26.592C2.89246 25.9578 3.64111 25.7146 4.52402 25.8624C5.23034 25.9806 5.7113 26.3932 5.96691 27.1004C6.16904 27.6715 6.20334 28.3235 6.06982 29.0563C5.92802 29.8386 5.6112 30.4735 5.11934 30.9612C4.56209 31.5142 3.91089 31.7283 3.16571 31.6036ZM4.27519 26.9262C3.75663 26.8358 3.31089 27.0153 2.93797 27.4648C2.64163 27.8255 2.45062 28.2619 2.36493 28.774C2.27923 29.286 2.35195 29.7085 2.58308 30.0412C2.77657 30.3168 3.03047 30.4809 3.34478 30.5335C3.71207 30.595 4.05061 30.5137 4.3604 30.2896C4.71023 30.0432 4.93623 29.669 5.0384 29.1669C5.31656 27.8084 5.06215 27.0615 4.27519 26.9262ZM11.7186 28.6892C11.62 29.1265 11.4065 29.3177 11.0781 29.2627C10.7744 29.2119 10.6517 29.0116 10.7103 28.662C10.7215 28.5949 10.7369 28.4704 10.7564 28.2885L10.815 27.8409C10.2458 27.8146 9.77272 27.897 9.39584 28.0881C9.04311 28.265 8.72386 28.5674 8.43807 28.9952L7.96287 31.8999C7.90318 32.2566 7.69852 32.4057 7.34889 32.3472C7.03811 32.2952 6.91256 32.0909 6.97225 31.7342L7.59457 28.0154C7.61407 27.8988 7.64685 27.7246 7.69292 27.4927C7.74252 27.2614 7.77707 27.0875 7.79658 26.9709C7.85627 26.6142 8.0415 26.4619 8.35229 26.5139C8.69839 26.5718 8.82415 26.8942 8.72958 27.481C9.51698 26.9411 10.3239 26.7403 11.1503 26.8786C11.4363 26.9265 11.632 27.07 11.7372 27.309C11.8424 27.5481 11.8587 27.8848 11.786 28.3192C11.7552 28.5029 11.7328 28.6262 11.7186 28.6892ZM19.397 34.3852C19.0933 34.3343 18.9498 34.1397 18.9665 33.8012L19.0123 32.6163C19.032 32.1948 19.072 31.8039 19.1323 31.4437C19.1488 31.3448 19.1822 31.178 19.2324 30.9431C19.2861 30.7089 19.3212 30.5423 19.3378 30.4434C19.4654 29.6806 19.388 29.2755 19.1055 29.2282C18.7099 29.162 18.2927 29.3337 17.8539 29.7431C17.4575 30.116 17.1128 30.6138 16.8198 31.2364C16.7897 31.373 16.7449 31.5434 16.6853 31.7476C16.6345 31.9207 16.5953 32.0902 16.5675 32.2562C16.5498 32.3621 16.5338 32.5228 16.5195 32.7382C16.5052 32.9537 16.4892 33.1144 16.4715 33.2203C16.4449 33.3792 16.3739 33.4999 16.2585 33.5822C16.1466 33.6651 16.0147 33.6939 15.8628 33.6685C15.7074 33.6425 15.5903 33.5721 15.5115 33.4572C15.4327 33.3424 15.4066 33.2055 15.4332 33.0466C15.4509 32.9406 15.4652 32.7796 15.4759 32.5636C15.4902 32.3482 15.5062 32.1875 15.5239 32.0815C15.5848 31.7178 15.6937 31.2186 15.8507 30.5842C16.0118 29.9467 16.1228 29.4461 16.1837 29.0824C16.2026 28.9694 16.2236 28.8004 16.2467 28.5756C16.2734 28.3513 16.2962 28.1827 16.3151 28.0697C16.3405 27.9178 16.4106 27.8025 16.5254 27.7237C16.6444 27.6419 16.7781 27.6135 16.9264 27.6383C17.2513 27.6927 17.3912 27.9521 17.3462 28.4165L17.2584 29.0389C17.984 28.3471 18.6594 28.0536 19.2845 28.1582C19.8496 28.2527 20.2017 28.5676 20.3409 29.1028C20.4372 29.4602 20.438 29.965 20.3434 30.6171L20.2539 31.1522L20.1661 31.6439C20.1171 31.9371 20.0906 32.3229 20.0868 32.8015C20.0871 33.2772 20.063 33.6598 20.0145 33.9494C19.9885 34.1048 19.9163 34.2216 19.7979 34.2998C19.6825 34.3821 19.5489 34.4106 19.397 34.3852ZM23.0099 34.9244C22.4166 34.8251 21.9429 34.5208 21.5889 34.0113C21.1936 33.4442 21.0525 32.7471 21.1655 31.9201C21.2779 31.1184 21.5968 30.4493 22.1222 29.9128C22.7366 29.2786 23.4853 29.0354 24.3682 29.1831C25.0745 29.3013 25.5555 29.714 25.8111 30.4212C26.0132 30.9923 26.0475 31.6443 25.914 32.3771C25.7722 33.1593 25.4554 33.7943 24.9635 34.282C24.4063 34.835 23.7551 35.0491 23.0099 34.9244ZM24.1194 30.247C23.6008 30.1566 23.1551 30.3361 22.7822 30.7856C22.4858 31.1463 22.2948 31.5827 22.2091 32.0947C22.1234 32.6068 22.1961 33.0292 22.4273 33.362C22.6207 33.6376 22.8747 33.8017 23.189 33.8543C23.5563 33.9158 23.8948 33.8345 24.2046 33.6104C24.5544 33.364 24.7804 32.9897 24.8826 32.4877C25.1607 31.1292 24.9063 30.3823 24.1194 30.247ZM31.0856 31.3147C31.0114 31.3023 30.9237 31.284 30.8225 31.2598C30.7248 31.2362 30.6388 31.2182 30.5647 31.2058C30.4834 31.1922 30.2389 31.1785 29.8309 31.1647L29.4077 34.3123L29.3739 34.5463L29.334 34.8173C29.2187 35.5931 28.9686 35.9488 28.5837 35.8844C28.4424 35.8607 28.3265 35.7941 28.2359 35.6846C28.1488 35.5756 28.1168 35.4523 28.1399 35.3145C28.1623 35.1803 28.2013 34.9799 28.2568 34.7133C28.3123 34.4467 28.3513 34.2462 28.3738 34.112L28.7855 31.0006C28.5295 30.9469 28.1425 30.8513 27.6246 30.7138C27.3174 30.6188 27.1895 30.4177 27.2409 30.1104C27.2669 29.955 27.3361 29.8341 27.4486 29.7476C27.5611 29.6612 27.6915 29.6304 27.8399 29.6552L28.9372 29.9314C28.9674 29.7513 28.9987 29.5097 29.0313 29.2065C29.068 28.9004 29.0976 28.6803 29.1201 28.5461C29.1449 28.3978 29.2165 28.2845 29.3348 28.2063C29.4538 28.1245 29.5875 28.0961 29.7358 28.1209C30.0536 28.1741 30.1956 28.4647 30.1617 28.9927C30.1504 29.1251 30.1294 29.2832 30.0987 29.4668L30.0367 29.7723L29.9764 30.0998C30.4238 30.1166 30.6793 30.1303 30.7428 30.141C31.1101 30.2024 31.3473 30.2603 31.4544 30.3145C31.658 30.4212 31.738 30.6052 31.6942 30.8665C31.6682 31.0219 31.5972 31.1426 31.4812 31.2284C31.3693 31.3114 31.2374 31.3401 31.0856 31.3147Z" fill="#C64848"/>
</svg>
